HIERARCHY
ROOT SpineBase
{
  OFFSET 0.000000 0.000000 0.000000
  CHANNELS 6 Xposition Yposition Zposition Zrotation Xrotation Yrotation
  JOINT SpineMid
  {
    OFFSET 0.000000 31.406542 0.000000
    CHANNELS 3 Zrotation Xrotation Yrotation
    JOINT SpineShoulder
    {
      OFFSET -0.090226 23.311526 -1.070479
      CHANNELS 3 Zrotation Xrotation Yrotation
      JOINT Neck
      {
        OFFSET -0.025587 7.713241 -0.692259
        CHANNELS 3 Zrotation Xrotation Yrotation
        JOINT Head
        {
          OFFSET -5.311209 12.318981 -0.189354
          CHANNELS 3 Zrotation Xrotation Yrotation
          End Site
          {
            OFFSET 0 0 0
          }
        }
      }
      JOINT ShoulderLeft
      {
        OFFSET -14.734880 -3.499501 7.111848
        CHANNELS 3 Zrotation Xrotation Yrotation
        JOINT ElbowLeft
        {
          OFFSET -2.335890 -22.448655 5.634055
          CHANNELS 3 Zrotation Xrotation Yrotation
          JOINT WristLeft
          {
            OFFSET 1.377197 -22.372725 -5.576205
            CHANNELS 3 Zrotation Xrotation Yrotation
            JOINT HandLeft
            {
              OFFSET 3.154145 -3.711218 -8.394608
              CHANNELS 3 Zrotation Xrotation Yrotation
              JOINT HandTipLeft
              {
                OFFSET -0.089243 -8.493811 0.863543
                CHANNELS 3 Zrotation Xrotation Yrotation
                End Site
                {
                  OFFSET 0 0 0
                }
              }
              JOINT ThumbLeft
              {
                OFFSET 1.333501 0.459556 -2.927030
                CHANNELS 3 Zrotation Xrotation Yrotation
                End Site
                {
                  OFFSET 0 0 0
                }
              }
            }
          }
        }
      }
      JOINT ShoulderRight
      {
        OFFSET 13.306267 -2.471311 -6.308965
        CHANNELS 3 Zrotation Xrotation Yrotation
        JOINT ElbowRight
        {
          OFFSET 13.143484 -20.095639 3.618781
          CHANNELS 3 Zrotation Xrotation Yrotation
          JOINT WristRight
          {
            OFFSET -3.789386 -19.428460 -8.362418
            CHANNELS 3 Zrotation Xrotation Yrotation
            JOINT HandRight
            {
              OFFSET -3.153484 -4.127243 2.186627
              CHANNELS 3 Zrotation Xrotation Yrotation
              JOINT HandTipRight
              {
                OFFSET 1.365965 -5.705604 -0.326099
                CHANNELS 3 Zrotation Xrotation Yrotation
                End Site
                {
                  OFFSET 0 0 0
                }
              }
              JOINT ThumbRight
              {
                OFFSET 3.949251 0.356536 -2.841222
                CHANNELS 3 Zrotation Xrotation Yrotation
                End Site
                {
                  OFFSET 0 0 0
                }
              }
            }
          }
        }
      }
    }
  }
  JOINT HipLeft
  {
    OFFSET -6.092196 0.111877 -0.898071
    CHANNELS 3 Zrotation Xrotation Yrotation
    JOINT KneeLeft
    {
      OFFSET 4.000324 -37.734592 6.170741
      CHANNELS 3 Zrotation Xrotation Yrotation
      JOINT AnkleLeft
      {
        OFFSET 10.329407 -37.172469 9.773063
        CHANNELS 3 Zrotation Xrotation Yrotation
        JOINT FootLeft
        {
          OFFSET -1.958223 -8.006024 -5.422539
          CHANNELS 3 Zrotation Xrotation Yrotation
          End Site
          {
            OFFSET 0 0 0
          }
        }
      }
    }
  }
  JOINT HipRight
  {
    OFFSET 6.660865 1.566316 -5.371374
    CHANNELS 3 Zrotation Xrotation Yrotation
    JOINT KneeRight
    {
      OFFSET 9.006126 -35.230820 0.034935
      CHANNELS 3 Zrotation Xrotation Yrotation
      JOINT AnkleRight
      {
        OFFSET 7.389659 -39.449940 12.349434
        CHANNELS 3 Zrotation Xrotation Yrotation
        JOINT FootRight
        {
          OFFSET -1.823620 -8.307048 -4.108004
          CHANNELS 3 Zrotation Xrotation Yrotation
          End Site
          {
            OFFSET 0 0 0
          }
        }
      }
    }
  }
}
MOTION
Frames: 10
Frame Time: 0.033333
-27.603451 83.127746 328.951033 -0.000000 0.000000 19.328989 -0.000000 0.000000 -19.328989 -0.000000 0.000000 0.000000 -0.000000 0.000000 0.000000 0.000000 0.000000 0.000000 -0.000000 0.000000 0.000000 -0.000000 0.000000 0.000000 -0.000000 0.000000 0.000000 -0.000000 0.000000 0.000000 0.000000 0.000000 0.000000 0.000000 0.000000 0.000000 -0.000000 0.000000 0.000000 -0.000000 0.000000 0.000000 -0.000000 0.000000 0.000000 -0.000000 0.000000 0.000000 0.000000 0.000000 0.000000 0.000000 0.000000 0.000000 -0.000000 0.000000 -19.328989 -0.000000 0.000000 0.000000 -0.000000 0.000000 0.000000 0.000000 0.000000 0.000000 -0.000000 0.000000 -19.328989 -0.000000 0.000000 0.000000 -0.000000 0.000000 0.000000 0.000000 0.000000 0.000000
-27.524599 83.155353 329.013710 0.135086 -0.323498 18.784982 -0.023719 0.349766 -18.784528 -0.000000 0.000000 0.000000 -0.000000 0.000000 0.000000 0.000000 0.000000 0.000000 -0.000000 0.000000 0.000000 -0.000000 0.000000 0.000000 0.143453 -0.522520 -0.775078 0.090654 -1.219543 0.818262 0.000000 0.000000 0.000000 0.000000 0.000000 0.000000 0.718693 -0.468236 -0.173053 -0.720128 0.466026 0.178919 -1.702492 -2.337133 0.830764 -15.211036 -0.857456 -0.519483 0.000000 0.000000 0.000000 0.000000 0.000000 0.000000 -0.023719 0.349766 -18.784528 -0.000000 0.000000 0.000000 -0.584066 0.587628 0.253662 0.000000 0.000000 0.000000 -0.023719 0.349766 -18.784528 -0.000000 0.000000 0.000000 -0.000000 0.000000 0.000000 0.000000 0.000000 0.000000
-27.443931 83.179526 329.068074 0.266558 -0.626230 18.309167 -0.056346 0.678263 -18.307377 -0.000000 0.000000 0.000000 1.062867 0.676241 0.300448 0.000000 0.000000 0.000000 -0.000000 0.000000 0.000000 -0.000000 0.000000 0.000000 0.248650 -1.127191 -1.549543 0.222978 -1.716494 1.630298 0.000000 0.000000 0.000000 0.000000 0.000000 0.000000 1.338681 -0.893506 -0.329905 -1.343964 0.885539 0.350730 -3.159284 -4.341122 1.464160 -27.143692 -1.378720 -0.650554 0.000000 0.000000 0.000000 0.000000 0.000000 0.000000 -0.056346 0.678263 -18.307377 -0.000000 0.000000 0.000000 -1.057321 1.032783 0.469138 0.000000 0.000000 0.000000 -0.056346 0.678263 -18.307377 -0.000000 0.000000 0.000000 -0.569482 1.380050 -0.014390 0.000000 0.000000 0.000000
-27.361447 83.200265 329.114122 0.394459 -0.908300 17.901547 -0.037298 -0.066543 -17.884454 0.017996 0.092503 0.018600 1.115114 1.812897 0.353717 0.000000 0.000000 0.000000 -0.396882 0.890805 -0.029601 -0.000000 0.000000 0.000000 0.313376 -1.818597 -2.327455 0.371893 -1.501178 2.434696 0.000000 0.000000 0.000000 0.000000 0.000000 0.000000 1.467226 -0.388566 -0.531736 -1.876133 1.261811 0.514626 -4.357771 -5.959331 1.912110 -35.244013 -1.675287 -0.556670 0.000000 0.000000 0.000000 0.000000 0.000000 0.000000 -0.096196 0.985567 -17.897593 -0.000000 0.000000 0.000000 -1.420239 1.338479 0.644124 0.000000 0.000000 0.000000 -0.096196 0.985567 -17.897593 -0.000000 0.000000 0.000000 -0.651331 2.068405 -0.119050 0.000000 0.000000 0.000000
-27.277147 83.217570 329.151856 0.518831 -1.169806 17.562035 -0.048668 -0.053576 -17.538512 0.017481 0.117850 0.023316 1.399064 2.223604 0.411017 0.000000 0.000000 0.000000 -0.505213 1.118081 -0.036737 -0.000000 0.000000 0.000000 0.334822 -2.602239 -3.113241 0.512794 -0.570063 3.230478 0.000000 0.000000 0.000000 0.000000 0.000000 0.000000 1.795546 -0.507741 -0.686661 -2.732396 0.854833 1.004436 -4.895697 -6.388375 1.926490 -40.280107 -1.920543 -0.427863 0.000000 0.000000 0.000000 0.000000 0.000000 0.000000 -0.141741 1.271812 -17.555165 -0.000000 0.000000 0.000000 -1.673204 1.507016 0.777024 0.000000 0.000000 0.000000 -0.655767 2.133524 -17.369916 0.747750 -0.668900 -0.165610 -0.598468 2.755777 -0.290936 0.000000 0.000000 0.000000
-27.191031 83.231441 329.181275 0.639713 -1.410839 17.290479 -0.060058 -0.023456 -17.260342 0.013770 0.140369 0.027374 1.637485 2.536144 0.441233 0.000000 0.000000 0.000000 -0.601890 1.311231 -0.042827 -0.000000 0.000000 0.000000 0.309468 -3.484603 -3.911801 0.620284 1.096123 4.018645 0.000000 0.000000 0.000000 0.000000 0.000000 0.000000 2.050001 -0.623890 -0.830923 -3.099970 0.824381 1.222690 -5.537546 -6.787739 2.010115 -43.087415 -2.246711 -0.412230 0.000000 0.000000 0.000000 0.000000 0.000000 0.000000 -0.191605 1.537176 -17.280032 -0.000000 0.000000 0.000000 -1.816457 1.539881 0.866879 0.000000 0.000000 0.000000 -0.843982 2.541214 -17.061703 0.918071 -0.768330 -0.188958 -0.411106 3.441644 -0.531785 0.000000 0.000000 0.000000
-27.103306 83.248121 329.206020 0.759851 -1.622579 17.108306 -0.064214 0.061171 -17.071553 0.003642 0.164761 0.030481 1.813109 2.620506 0.416883 0.000000 0.000000 0.000000 -0.682596 1.418915 -0.048158 -0.000000 0.000000 0.000000 0.522958 -3.727798 -4.657648 0.401215 4.122378 4.741867 0.000000 0.000000 0.000000 0.000000 0.000000 0.000000 2.209495 -0.780514 -0.961787 -3.343941 0.563766 1.462415 -5.982430 -6.767950 2.041833 -43.125302 -1.716732 -0.042194 0.000000 0.000000 0.000000 0.000000 0.000000 0.000000 -0.249105 1.774246 -17.093688 -0.000000 0.000000 0.000000 -2.046299 1.738324 0.977612 0.000000 0.000000 0.000000 -1.036872 2.876722 -16.851968 1.073237 -0.826579 -0.202012 -0.111172 4.203977 -0.848643 0.000000 0.000000 0.000000
-27.013472 83.255816 329.223536 0.875996 -1.814013 16.994998 -0.081060 0.135637 -16.951785 -0.008234 0.176100 0.032947 1.986870 2.606486 0.350981 0.000000 0.000000 0.000000 -0.748757 1.532708 -0.052165 -0.000000 0.000000 0.000000 0.138333 -5.491757 -5.572118 1.110472 8.137948 5.579316 0.000000 0.000000 0.000000 0.000000 0.000000 0.000000 2.347364 -0.896866 -1.076548 -3.326936 0.537188 1.530539 -6.382830 -5.975320 1.661464 -42.813699 -3.399100 -0.898610 0.000000 0.000000 0.000000 0.000000 0.000000 0.000000 -0.307832 1.990737 -16.975781 -0.000000 0.000000 0.000000 -1.890412 1.164853 1.003811 0.000000 0.000000 0.000000 -1.234999 3.177002 -16.713570 1.228670 -0.869236 -0.211089 0.419625 5.100021 -1.318496 0.000000 0.000000 0.000000
-26.924585 83.257366 329.224611 0.973134 -2.009255 16.928242 -0.091968 0.205099 -16.879116 -0.024596 0.192235 0.034594 2.148842 2.680159 0.321022 0.000000 0.000000 0.000000 -0.798695 1.648524 -0.054796 -0.000000 0.000000 0.000000 -0.296894 -7.333940 -6.546395 1.026871 12.167713 6.459722 0.000000 0.000000 0.000000 0.000000 0.000000 0.000000 2.428450 -0.982960 -1.185494 -3.486238 -0.052948 1.815853 -5.569067 -3.964207 1.177366 -40.121571 -5.100455 -2.080207 0.000000 0.000000 0.000000 0.000000 0.000000 0.000000 -1.155566 2.627263 -16.999192 0.896564 -0.166773 0.130104 -1.814038 0.941310 1.003924 0.000000 0.000000 0.000000 -1.414286 3.454346 -16.626099 1.379931 -0.890772 -0.214955 1.136066 5.802020 -1.851650 0.000000 0.000000 0.000000
-26.840599 83.252731 329.211801 1.058655 -2.186276 16.888839 -0.095723 0.260477 -16.833991 -0.040633 0.207597 0.036258 2.170332 2.811052 0.319591 0.000000 0.000000 0.000000 -0.848303 1.758314 -0.057365 -0.000000 0.000000 0.000000 -0.505851 -8.268392 -7.114004 0.880291 15.240164 6.983781 0.000000 0.000000 0.000000 0.000000 0.000000 0.000000 2.368672 -1.052433 -1.305183 -3.501543 -0.483014 2.072113 -4.646563 -1.582996 0.343197 -35.718224 -7.397910 -3.132201 0.000000 0.000000 0.000000 0.000000 0.000000 0.000000 -1.290278 2.837187 -16.966100 0.999112 -0.152576 0.148375 -1.442154 0.468323 0.863115 0.000000 0.000000 0.000000 -1.579465 3.699945 -16.568067 1.521090 -0.903574 -0.216746 1.786486 6.495909 -2.354123 0.000000 0.000000 0.000000
